<svg xmlns="http://www.w3.org/2000/svg" xmlns:xlink="http://www.w3.org/1999/xlink" width="50" zoomAndPan="magnify" viewBox="0 0 37.5 37.499999" height="50" preserveAspectRatio="xMidYMid meet" version="1.0"><defs><clipPath id="73b433f6f5"><path d="M 1.875 3.75 L 35.625 3.75 L 35.625 34.496094 L 1.875 34.496094 Z M 1.875 3.75 " clip-rule="nonzero"/></clipPath></defs><g clip-path="url(#73b433f6f5)"><path fill="#d9d9d9" d="M 18.59375 7.703125 C 18.515625 7.78125 18.453125 7.84375 18.410156 7.886719 C 18.359375 7.839844 18.257812 7.738281 18.109375 7.605469 L 18.109375 7.617188 C 13.21875 0.457031 1.660156 3.953125 1.878906 13.039062 C 2.097656 22.269531 18.335938 34.496094 18.335938 34.496094 C 18.363281 34.480469 18.390625 34.460938 18.417969 34.441406 C 18.425781 34.445312 18.4375 34.453125 18.445312 34.457031 C 18.445312 34.457031 35.390625 22.230469 35.621094 13 C 35.851562 3.863281 23.648438 0.378906 18.59375 7.703125 " fill-opacity="1" fill-rule="nonzero"/></g></svg>