<svg xmlns="http://www.w3.org/2000/svg" xmlns:xlink="http://www.w3.org/1999/xlink" width="250" zoomAndPan="magnify" viewBox="0 0 187.5 37.5" height="50" preserveAspectRatio="xMidYMid meet" version="1.0"><defs><clipPath id="d8ae1948bf"><path d="M 6 4.894531 L 34.753906 4.894531 L 34.753906 32.355469 L 6 32.355469 Z M 6 4.894531 " clip-rule="nonzero"/></clipPath><clipPath id="d0e507c158"><path d="M 43 4.894531 L 71.421875 4.894531 L 71.421875 32.355469 L 43 32.355469 Z M 43 4.894531 " clip-rule="nonzero"/></clipPath><clipPath id="ff672f9b59"><path d="M 79.246094 4.894531 L 108.1875 4.894531 L 108.1875 32.355469 L 79.246094 32.355469 Z M 79.246094 4.894531 " clip-rule="nonzero"/></clipPath><clipPath id="8d54fae605"><path d="M 116.015625 4.894531 L 144.957031 4.894531 L 144.957031 32.355469 L 116.015625 32.355469 Z M 116.015625 4.894531 " clip-rule="nonzero"/></clipPath><clipPath id="fdc5b7b81b"><path d="M 153 4.894531 L 181.726562 4.894531 L 181.726562 32.355469 L 153 32.355469 Z M 153 4.894531 " clip-rule="nonzero"/></clipPath></defs><g clip-path="url(#d8ae1948bf)"><path fill="#000000" d="M 25.398438 4.921875 C 25.335938 4.921875 25.277344 4.925781 25.214844 4.929688 C 22.816406 5.347656 21.5 7.894531 21.308594 10.140625 C 21.027344 12.175781 21.921875 14.796875 24.152344 15.253906 C 24.476562 15.316406 24.8125 15.285156 25.125 15.199219 C 27.8125 14.296875 29.011719 11.105469 28.625 8.460938 C 28.511719 6.753906 27.230469 4.898438 25.398438 4.921875 Z M 15.226562 5.03125 C 13.734375 5.070312 12.570312 6.585938 12.335938 8.015625 C 11.835938 10.84375 13.117188 14.359375 16.054688 15.253906 C 16.328125 15.3125 16.613281 15.320312 16.890625 15.277344 C 18.875 14.945312 19.714844 12.710938 19.632812 10.910156 C 19.574219 8.53125 18.34375 5.78125 15.882812 5.113281 C 15.65625 5.050781 15.4375 5.027344 15.226562 5.03125 Z M 31.898438 13.066406 C 29.316406 13.222656 27.546875 15.804688 27.292969 18.21875 C 26.953125 19.960938 27.878906 22.289062 29.855469 22.429688 C 32.617188 22.394531 34.496094 19.433594 34.574219 16.886719 C 34.75 15.203125 33.761719 13.160156 31.898438 13.066406 Z M 9.308594 13.640625 C 8.210938 13.628906 7.132812 14.289062 6.773438 15.410156 C 5.816406 18.410156 7.738281 22.203125 10.898438 22.835938 C 12.21875 23.0625 13.378906 22.042969 13.707031 20.820312 C 14.398438 18.199219 12.976562 15.160156 10.566406 13.972656 C 10.171875 13.75 9.738281 13.644531 9.308594 13.640625 Z M 20.878906 19.015625 C 18.726562 19.019531 16.539062 20.117188 15.144531 21.746094 C 13.640625 23.648438 12.40625 25.863281 11.925781 28.265625 C 11.339844 29.992188 12.667969 31.984375 14.507812 31.996094 C 16.722656 32.054688 18.625 30.53125 20.824219 30.417969 C 22.695312 30.128906 24.367188 31.105469 26.046875 31.746094 C 27.476562 32.359375 29.449219 32.125 30.179688 30.578125 C 30.753906 29.003906 29.910156 27.324219 29.210938 25.925781 C 27.78125 23.65625 26.25 21.273438 23.910156 19.855469 C 22.972656 19.269531 21.929688 19.011719 20.878906 19.015625 Z M 20.878906 19.015625 " fill-opacity="1" fill-rule="nonzero"/></g><g clip-path="url(#d0e507c158)"><path fill="#000000" d="M 62.0625 4.921875 C 62.003906 4.921875 61.941406 4.925781 61.882812 4.929688 C 59.484375 5.347656 58.164062 7.894531 57.972656 10.140625 C 57.691406 12.175781 58.585938 14.796875 60.816406 15.253906 C 61.140625 15.316406 61.476562 15.285156 61.792969 15.199219 C 64.476562 14.296875 65.675781 11.105469 65.289062 8.460938 C 65.175781 6.753906 63.894531 4.898438 62.0625 4.921875 Z M 51.890625 5.03125 C 50.398438 5.070312 49.238281 6.585938 49 8.015625 C 48.5 10.84375 49.785156 14.359375 52.71875 15.253906 C 52.992188 15.3125 53.277344 15.320312 53.554688 15.277344 C 55.539062 14.945312 56.382812 12.710938 56.296875 10.910156 C 56.238281 8.53125 55.007812 5.78125 52.546875 5.113281 C 52.324219 5.050781 52.105469 5.027344 51.890625 5.03125 Z M 68.5625 13.066406 C 65.980469 13.222656 64.210938 15.804688 63.960938 18.21875 C 63.617188 19.960938 64.542969 22.289062 66.523438 22.429688 C 69.28125 22.394531 71.164062 19.433594 71.242188 16.886719 C 71.414062 15.203125 70.425781 13.160156 68.5625 13.066406 Z M 45.972656 13.640625 C 44.875 13.628906 43.796875 14.289062 43.4375 15.410156 C 42.480469 18.410156 44.402344 22.203125 47.566406 22.835938 C 48.882812 23.0625 50.042969 22.042969 50.371094 20.820312 C 51.066406 18.199219 49.640625 15.160156 47.230469 13.972656 C 46.835938 13.75 46.402344 13.644531 45.972656 13.640625 Z M 57.542969 19.015625 C 55.390625 19.019531 53.203125 20.117188 51.8125 21.746094 C 50.304688 23.648438 49.074219 25.863281 48.589844 28.265625 C 48.003906 29.992188 49.332031 31.984375 51.171875 31.996094 C 53.386719 32.054688 55.289062 30.53125 57.492188 30.417969 C 59.359375 30.128906 61.03125 31.105469 62.710938 31.746094 C 64.140625 32.359375 66.117188 32.125 66.847656 30.578125 C 67.421875 29.003906 66.574219 27.324219 65.875 25.925781 C 64.445312 23.65625 62.917969 21.273438 60.574219 19.855469 C 59.636719 19.269531 58.59375 19.011719 57.542969 19.015625 Z M 57.542969 19.015625 " fill-opacity="1" fill-rule="nonzero"/></g><g clip-path="url(#ff672f9b59)"><path fill="#000000" d="M 98.828125 4.921875 C 98.769531 4.921875 98.710938 4.925781 98.648438 4.929688 C 96.25 5.347656 94.933594 7.894531 94.742188 10.140625 C 94.460938 12.175781 95.355469 14.796875 97.585938 15.253906 C 97.90625 15.316406 98.242188 15.285156 98.558594 15.199219 C 101.242188 14.296875 102.445312 11.105469 102.058594 8.460938 C 101.945312 6.753906 100.664062 4.898438 98.828125 4.921875 Z M 88.660156 5.03125 C 87.167969 5.070312 86.003906 6.585938 85.769531 8.015625 C 85.269531 10.84375 86.550781 14.359375 89.488281 15.253906 C 89.761719 15.3125 90.046875 15.320312 90.324219 15.277344 C 92.308594 14.945312 93.148438 12.710938 93.066406 10.910156 C 93.007812 8.53125 91.777344 5.78125 89.316406 5.113281 C 89.089844 5.050781 88.871094 5.027344 88.660156 5.03125 Z M 105.332031 13.066406 C 102.75 13.222656 100.980469 15.804688 100.726562 18.21875 C 100.386719 19.960938 101.3125 22.289062 103.289062 22.429688 C 106.046875 22.394531 107.929688 19.433594 108.007812 16.886719 C 108.183594 15.203125 107.195312 13.160156 105.332031 13.066406 Z M 82.742188 13.640625 C 81.644531 13.628906 80.5625 14.289062 80.207031 15.410156 C 79.25 18.410156 81.171875 22.203125 84.332031 22.835938 C 85.652344 23.0625 86.8125 22.042969 87.140625 20.820312 C 87.832031 18.199219 86.410156 15.160156 83.996094 13.972656 C 83.605469 13.75 83.171875 13.644531 82.742188 13.640625 Z M 94.3125 19.015625 C 92.160156 19.019531 89.972656 20.117188 88.578125 21.746094 C 87.074219 23.648438 85.839844 25.863281 85.359375 28.265625 C 84.773438 29.992188 86.101562 31.984375 87.941406 31.996094 C 90.15625 32.054688 92.058594 30.53125 94.257812 30.417969 C 96.125 30.128906 97.800781 31.105469 99.480469 31.746094 C 100.910156 32.359375 102.882812 32.125 103.613281 30.578125 C 104.1875 29.003906 103.34375 27.324219 102.644531 25.925781 C 101.214844 23.65625 99.683594 21.273438 97.34375 19.855469 C 96.40625 19.269531 95.363281 19.011719 94.3125 19.015625 Z M 94.3125 19.015625 " fill-opacity="1" fill-rule="nonzero"/></g><g clip-path="url(#8d54fae605)"><path fill="#000000" d="M 135.597656 4.921875 C 135.539062 4.921875 135.476562 4.925781 135.417969 4.929688 C 133.019531 5.347656 131.699219 7.894531 131.507812 10.140625 C 131.230469 12.175781 132.125 14.796875 134.351562 15.253906 C 134.675781 15.316406 135.011719 15.285156 135.328125 15.199219 C 138.011719 14.296875 139.214844 11.105469 138.824219 8.460938 C 138.710938 6.753906 137.429688 4.898438 135.597656 4.921875 Z M 125.425781 5.03125 C 123.933594 5.070312 122.773438 6.585938 122.535156 8.015625 C 122.039062 10.84375 123.320312 14.359375 126.253906 15.253906 C 126.53125 15.3125 126.816406 15.320312 127.09375 15.277344 C 129.078125 14.945312 129.917969 12.710938 129.835938 10.910156 C 129.773438 8.53125 128.542969 5.78125 126.082031 5.113281 C 125.859375 5.050781 125.640625 5.027344 125.425781 5.03125 Z M 142.097656 13.066406 C 139.515625 13.222656 137.75 15.804688 137.496094 18.21875 C 137.15625 19.960938 138.078125 22.289062 140.058594 22.429688 C 142.816406 22.394531 144.699219 19.433594 144.777344 16.886719 C 144.953125 15.203125 143.964844 13.160156 142.097656 13.066406 Z M 119.511719 13.640625 C 118.414062 13.628906 117.332031 14.289062 116.972656 15.410156 C 116.015625 18.410156 117.9375 22.203125 121.101562 22.835938 C 122.421875 23.0625 123.578125 22.042969 123.90625 20.820312 C 124.601562 18.199219 123.175781 15.160156 120.765625 13.972656 C 120.375 13.75 119.941406 13.644531 119.511719 13.640625 Z M 131.078125 19.015625 C 128.925781 19.019531 126.742188 20.117188 125.347656 21.746094 C 123.84375 23.648438 122.609375 25.863281 122.125 28.265625 C 121.539062 29.992188 122.867188 31.984375 124.707031 31.996094 C 126.921875 32.054688 128.824219 30.53125 131.027344 30.417969 C 132.894531 30.128906 134.566406 31.105469 136.246094 31.746094 C 137.675781 32.359375 139.652344 32.125 140.382812 30.578125 C 140.957031 29.003906 140.109375 27.324219 139.410156 25.925781 C 137.984375 23.65625 136.453125 21.273438 134.113281 19.855469 C 133.171875 19.269531 132.128906 19.011719 131.078125 19.015625 Z M 131.078125 19.015625 " fill-opacity="1" fill-rule="nonzero"/></g><g clip-path="url(#fdc5b7b81b)"><path fill="#000000" d="M 172.367188 4.921875 C 172.308594 4.921875 172.246094 4.925781 172.1875 4.929688 C 169.785156 5.347656 168.46875 7.894531 168.277344 10.140625 C 167.996094 12.175781 168.890625 14.796875 171.121094 15.253906 C 171.445312 15.316406 171.78125 15.285156 172.097656 15.199219 C 174.78125 14.296875 175.980469 11.105469 175.59375 8.460938 C 175.480469 6.753906 174.199219 4.898438 172.367188 4.921875 Z M 162.195312 5.03125 C 160.703125 5.070312 159.539062 6.585938 159.304688 8.015625 C 158.804688 10.84375 160.085938 14.359375 163.023438 15.253906 C 163.296875 15.3125 163.582031 15.320312 163.859375 15.277344 C 165.84375 14.945312 166.683594 12.710938 166.601562 10.910156 C 166.542969 8.53125 165.3125 5.78125 162.851562 5.113281 C 162.625 5.050781 162.40625 5.027344 162.195312 5.03125 Z M 178.867188 13.066406 C 176.285156 13.222656 174.515625 15.804688 174.265625 18.21875 C 173.921875 19.960938 174.847656 22.289062 176.824219 22.429688 C 179.585938 22.394531 181.46875 19.433594 181.546875 16.886719 C 181.71875 15.203125 180.730469 13.160156 178.867188 13.066406 Z M 156.277344 13.640625 C 155.179688 13.628906 154.101562 14.289062 153.742188 15.410156 C 152.785156 18.410156 154.707031 22.203125 157.867188 22.835938 C 159.1875 23.0625 160.347656 22.042969 160.675781 20.820312 C 161.367188 18.199219 159.945312 15.160156 157.535156 13.972656 C 157.140625 13.75 156.707031 13.644531 156.277344 13.640625 Z M 167.847656 19.015625 C 165.695312 19.019531 163.507812 20.117188 162.113281 21.746094 C 160.609375 23.648438 159.375 25.863281 158.894531 28.265625 C 158.308594 29.992188 159.636719 31.984375 161.476562 31.996094 C 163.691406 32.054688 165.59375 30.53125 167.796875 30.417969 C 169.664062 30.128906 171.335938 31.105469 173.015625 31.746094 C 174.445312 32.359375 176.421875 32.125 177.148438 30.578125 C 177.722656 29.003906 176.878906 27.324219 176.179688 25.925781 C 174.75 23.65625 173.222656 21.273438 170.878906 19.855469 C 169.941406 19.269531 168.898438 19.011719 167.847656 19.015625 Z M 167.847656 19.015625 " fill-opacity="1" fill-rule="nonzero"/></g></svg>